<svg width="1013" height="1080" viewBox="0 0 1013 1080" fill="none" xmlns="http://www.w3.org/2000/svg">
<rect width="791" height="1539" transform="translate(392.504 -574) rotate(38.3673)" fill="url(#paint0_linear_26_11)"/>
<path d="M104.902 362.128V315.583H110.539V336.31H135.357V315.583H140.993V362.128H135.357V341.31H110.539V362.128H104.902ZM166.186 362.855C162.823 362.855 159.921 362.113 157.482 360.628C155.058 359.128 153.186 357.037 151.868 354.355C150.565 351.658 149.914 348.522 149.914 344.946C149.914 341.37 150.565 338.219 151.868 335.492C153.186 332.749 155.02 330.613 157.368 329.083C159.732 327.537 162.489 326.764 165.641 326.764C167.459 326.764 169.255 327.067 171.027 327.674C172.8 328.28 174.414 329.264 175.868 330.628C177.323 331.977 178.482 333.764 179.345 335.992C180.209 338.219 180.641 340.961 180.641 344.219V346.492H153.732V341.855H175.186C175.186 339.886 174.792 338.128 174.005 336.583C173.232 335.037 172.126 333.817 170.686 332.924C169.262 332.03 167.58 331.583 165.641 331.583C163.505 331.583 161.656 332.113 160.095 333.174C158.55 334.219 157.361 335.583 156.527 337.264C155.694 338.946 155.277 340.749 155.277 342.674V345.764C155.277 348.401 155.732 350.636 156.641 352.469C157.565 354.287 158.845 355.674 160.482 356.628C162.118 357.567 164.02 358.037 166.186 358.037C167.595 358.037 168.868 357.84 170.005 357.446C171.156 357.037 172.148 356.431 172.982 355.628C173.815 354.81 174.459 353.795 174.914 352.583L180.095 354.037C179.55 355.795 178.633 357.34 177.345 358.674C176.058 359.992 174.467 361.022 172.573 361.764C170.679 362.492 168.55 362.855 166.186 362.855ZM194.164 315.583V362.128H188.8V315.583H194.164ZM209.351 315.583V362.128H203.987V315.583H209.351ZM233.357 362.855C230.205 362.855 227.44 362.105 225.061 360.605C222.698 359.105 220.849 357.007 219.516 354.31C218.198 351.613 217.539 348.461 217.539 344.855C217.539 341.219 218.198 338.045 219.516 335.333C220.849 332.62 222.698 330.514 225.061 329.014C227.44 327.514 230.205 326.764 233.357 326.764C236.508 326.764 239.266 327.514 241.63 329.014C244.008 330.514 245.857 332.62 247.175 335.333C248.508 338.045 249.175 341.219 249.175 344.855C249.175 348.461 248.508 351.613 247.175 354.31C245.857 357.007 244.008 359.105 241.63 360.605C239.266 362.105 236.508 362.855 233.357 362.855ZM233.357 358.037C235.751 358.037 237.72 357.424 239.266 356.196C240.811 354.969 241.955 353.355 242.698 351.355C243.44 349.355 243.811 347.189 243.811 344.855C243.811 342.522 243.44 340.348 242.698 338.333C241.955 336.317 240.811 334.689 239.266 333.446C237.72 332.204 235.751 331.583 233.357 331.583C230.963 331.583 228.993 332.204 227.448 333.446C225.902 334.689 224.758 336.317 224.016 338.333C223.273 340.348 222.902 342.522 222.902 344.855C222.902 347.189 223.273 349.355 224.016 351.355C224.758 353.355 225.902 354.969 227.448 356.196C228.993 357.424 230.963 358.037 233.357 358.037Z" fill="white"/>
<path d="M113.357 478.128L100.63 431.583H106.357L116.084 469.492H116.539L126.448 431.583H132.811L142.72 469.492H143.175L152.902 431.583H158.63L145.902 478.128H140.084L129.811 441.037H129.448L119.175 478.128H113.357ZM176.311 478.855C172.948 478.855 170.046 478.113 167.607 476.628C165.183 475.128 163.311 473.037 161.993 470.355C160.69 467.658 160.039 464.522 160.039 460.946C160.039 457.37 160.69 454.219 161.993 451.492C163.311 448.749 165.145 446.613 167.493 445.083C169.857 443.537 172.614 442.764 175.766 442.764C177.584 442.764 179.38 443.067 181.152 443.674C182.925 444.28 184.539 445.264 185.993 446.628C187.448 447.977 188.607 449.764 189.47 451.992C190.334 454.219 190.766 456.961 190.766 460.219V462.492H163.857V457.855H185.311C185.311 455.886 184.917 454.128 184.13 452.583C183.357 451.037 182.251 449.817 180.811 448.924C179.387 448.03 177.705 447.583 175.766 447.583C173.63 447.583 171.781 448.113 170.22 449.174C168.675 450.219 167.486 451.583 166.652 453.264C165.819 454.946 165.402 456.749 165.402 458.674V461.764C165.402 464.401 165.857 466.636 166.766 468.469C167.69 470.287 168.97 471.674 170.607 472.628C172.243 473.567 174.145 474.037 176.311 474.037C177.72 474.037 178.993 473.84 180.13 473.446C181.281 473.037 182.273 472.431 183.107 471.628C183.94 470.81 184.584 469.795 185.039 468.583L190.22 470.037C189.675 471.795 188.758 473.34 187.47 474.674C186.183 475.992 184.592 477.022 182.698 477.764C180.804 478.492 178.675 478.855 176.311 478.855ZM204.289 431.583V478.128H198.925V431.583H204.289ZM228.294 478.855C225.022 478.855 222.203 478.083 219.84 476.537C217.476 474.992 215.658 472.863 214.385 470.151C213.112 467.439 212.476 464.34 212.476 460.855C212.476 457.31 213.128 454.181 214.431 451.469C215.749 448.742 217.582 446.613 219.931 445.083C222.294 443.537 225.052 442.764 228.203 442.764C230.658 442.764 232.87 443.219 234.84 444.128C236.809 445.037 238.423 446.31 239.681 447.946C240.938 449.583 241.719 451.492 242.022 453.674H236.658C236.249 452.083 235.34 450.674 233.931 449.446C232.537 448.204 230.658 447.583 228.294 447.583C226.203 447.583 224.37 448.128 222.794 449.219C221.234 450.295 220.014 451.817 219.135 453.787C218.272 455.742 217.84 458.037 217.84 460.674C217.84 463.37 218.264 465.719 219.112 467.719C219.976 469.719 221.188 471.272 222.749 472.378C224.325 473.484 226.173 474.037 228.294 474.037C229.688 474.037 230.953 473.795 232.09 473.31C233.226 472.825 234.188 472.128 234.976 471.219C235.764 470.31 236.325 469.219 236.658 467.946H242.022C241.719 470.007 240.969 471.863 239.772 473.514C238.59 475.151 237.022 476.454 235.067 477.424C233.128 478.378 230.87 478.855 228.294 478.855ZM264.044 478.855C260.893 478.855 258.128 478.105 255.749 476.605C253.385 475.105 251.537 473.007 250.203 470.31C248.885 467.613 248.226 464.461 248.226 460.855C248.226 457.219 248.885 454.045 250.203 451.333C251.537 448.62 253.385 446.514 255.749 445.014C258.128 443.514 260.893 442.764 264.044 442.764C267.196 442.764 269.953 443.514 272.317 445.014C274.696 446.514 276.544 448.62 277.862 451.333C279.196 454.045 279.862 457.219 279.862 460.855C279.862 464.461 279.196 467.613 277.862 470.31C276.544 473.007 274.696 475.105 272.317 476.605C269.953 478.105 267.196 478.855 264.044 478.855ZM264.044 474.037C266.438 474.037 268.408 473.424 269.953 472.196C271.499 470.969 272.643 469.355 273.385 467.355C274.128 465.355 274.499 463.189 274.499 460.855C274.499 458.522 274.128 456.348 273.385 454.333C272.643 452.317 271.499 450.689 269.953 449.446C268.408 448.204 266.438 447.583 264.044 447.583C261.65 447.583 259.681 448.204 258.135 449.446C256.59 450.689 255.446 452.317 254.703 454.333C253.961 456.348 253.59 458.522 253.59 460.855C253.59 463.189 253.961 465.355 254.703 467.355C255.446 469.355 256.59 470.969 258.135 472.196C259.681 473.424 261.65 474.037 264.044 474.037ZM288.05 478.128V443.219H293.232V448.674H293.686C294.414 446.81 295.588 445.363 297.209 444.333C298.83 443.287 300.777 442.764 303.05 442.764C305.353 442.764 307.27 443.287 308.8 444.333C310.345 445.363 311.55 446.81 312.414 448.674H312.777C313.671 446.87 315.012 445.439 316.8 444.378C318.588 443.302 320.732 442.764 323.232 442.764C326.353 442.764 328.906 443.742 330.891 445.696C332.876 447.636 333.868 450.658 333.868 454.764V478.128H328.505V454.764C328.505 452.189 327.8 450.348 326.391 449.242C324.982 448.136 323.323 447.583 321.414 447.583C318.959 447.583 317.058 448.325 315.709 449.81C314.361 451.28 313.686 453.143 313.686 455.401V478.128H308.232V454.219C308.232 452.234 307.588 450.636 306.3 449.424C305.012 448.196 303.353 447.583 301.323 447.583C299.929 447.583 298.626 447.954 297.414 448.696C296.217 449.439 295.247 450.469 294.505 451.787C293.777 453.09 293.414 454.598 293.414 456.31V478.128H288.05ZM358.311 478.855C354.948 478.855 352.046 478.113 349.607 476.628C347.183 475.128 345.311 473.037 343.993 470.355C342.69 467.658 342.039 464.522 342.039 460.946C342.039 457.37 342.69 454.219 343.993 451.492C345.311 448.749 347.145 446.613 349.493 445.083C351.857 443.537 354.614 442.764 357.766 442.764C359.584 442.764 361.38 443.067 363.152 443.674C364.925 444.28 366.539 445.264 367.993 446.628C369.448 447.977 370.607 449.764 371.47 451.992C372.334 454.219 372.766 456.961 372.766 460.219V462.492H345.857V457.855H367.311C367.311 455.886 366.917 454.128 366.13 452.583C365.357 451.037 364.251 449.817 362.811 448.924C361.387 448.03 359.705 447.583 357.766 447.583C355.63 447.583 353.781 448.113 352.22 449.174C350.675 450.219 349.486 451.583 348.652 453.264C347.819 454.946 347.402 456.749 347.402 458.674V461.764C347.402 464.401 347.857 466.636 348.766 468.469C349.69 470.287 350.97 471.674 352.607 472.628C354.243 473.567 356.145 474.037 358.311 474.037C359.72 474.037 360.993 473.84 362.13 473.446C363.281 473.037 364.273 472.431 365.107 471.628C365.94 470.81 366.584 469.795 367.039 468.583L372.22 470.037C371.675 471.795 370.758 473.34 369.47 474.674C368.183 475.992 366.592 477.022 364.698 477.764C362.804 478.492 360.675 478.855 358.311 478.855Z" fill="white"/>
<path d="M101.539 553.696V545.583H139.766V553.696H125.516V592.128H115.789V553.696H101.539ZM186.709 568.855C186.709 573.931 185.747 578.249 183.823 581.81C181.914 585.37 179.308 588.09 176.005 589.969C172.717 591.833 169.02 592.764 164.914 592.764C160.777 592.764 157.065 591.825 153.777 589.946C150.489 588.067 147.891 585.348 145.982 581.787C144.073 578.227 143.118 573.916 143.118 568.855C143.118 563.78 144.073 559.461 145.982 555.901C147.891 552.34 150.489 549.628 153.777 547.764C157.065 545.886 160.777 544.946 164.914 544.946C169.02 544.946 172.717 545.886 176.005 547.764C179.308 549.628 181.914 552.34 183.823 555.901C185.747 559.461 186.709 563.78 186.709 568.855ZM176.732 568.855C176.732 565.567 176.239 562.795 175.255 560.537C174.285 558.28 172.914 556.567 171.141 555.401C169.368 554.234 167.292 553.651 164.914 553.651C162.535 553.651 160.459 554.234 158.686 555.401C156.914 556.567 155.535 558.28 154.55 560.537C153.58 562.795 153.095 565.567 153.095 568.855C153.095 572.143 153.58 574.916 154.55 577.174C155.535 579.431 156.914 581.143 158.686 582.31C160.459 583.477 162.535 584.06 164.914 584.06C167.292 584.06 169.368 583.477 171.141 582.31C172.914 581.143 174.285 579.431 175.255 577.174C176.239 574.916 176.732 572.143 176.732 568.855ZM210.499 592.128H193.999V545.583H210.635C215.317 545.583 219.347 546.514 222.726 548.378C226.105 550.227 228.703 552.886 230.522 556.355C232.355 559.825 233.272 563.977 233.272 568.81C233.272 573.658 232.355 577.825 230.522 581.31C228.703 584.795 226.09 587.469 222.681 589.333C219.287 591.196 215.226 592.128 210.499 592.128ZM203.84 583.696H210.09C212.999 583.696 215.446 583.181 217.431 582.151C219.431 581.105 220.931 579.492 221.931 577.31C222.946 575.113 223.453 572.28 223.453 568.81C223.453 565.37 222.946 562.56 221.931 560.378C220.931 558.196 219.438 556.59 217.453 555.56C215.469 554.53 213.022 554.014 210.112 554.014H203.84V583.696ZM283.334 568.855C283.334 573.931 282.372 578.249 280.448 581.81C278.539 585.37 275.933 588.09 272.63 589.969C269.342 591.833 265.645 592.764 261.539 592.764C257.402 592.764 253.69 591.825 250.402 589.946C247.114 588.067 244.516 585.348 242.607 581.787C240.698 578.227 239.743 573.916 239.743 568.855C239.743 563.78 240.698 559.461 242.607 555.901C244.516 552.34 247.114 549.628 250.402 547.764C253.69 545.886 257.402 544.946 261.539 544.946C265.645 544.946 269.342 545.886 272.63 547.764C275.933 549.628 278.539 552.34 280.448 555.901C282.372 559.461 283.334 563.78 283.334 568.855ZM273.357 568.855C273.357 565.567 272.864 562.795 271.88 560.537C270.91 558.28 269.539 556.567 267.766 555.401C265.993 554.234 263.917 553.651 261.539 553.651C259.16 553.651 257.084 554.234 255.311 555.401C253.539 556.567 252.16 558.28 251.175 560.537C250.205 562.795 249.72 565.567 249.72 568.855C249.72 572.143 250.205 574.916 251.175 577.174C252.16 579.431 253.539 581.143 255.311 582.31C257.084 583.477 259.16 584.06 261.539 584.06C263.917 584.06 265.993 583.477 267.766 582.31C269.539 581.143 270.91 579.431 271.88 577.174C272.864 574.916 273.357 572.143 273.357 568.855ZM313.459 592.128H302.914L318.982 545.583H331.664L347.709 592.128H337.164L325.505 556.219H325.141L313.459 592.128ZM312.8 573.833H337.709V581.514H312.8V573.833ZM353.311 592.128V545.583H371.675C375.205 545.583 378.213 546.257 380.698 547.605C383.183 548.939 385.076 550.795 386.38 553.174C387.698 555.537 388.357 558.264 388.357 561.355C388.357 564.446 387.69 567.174 386.357 569.537C385.023 571.901 383.092 573.742 380.561 575.06C378.046 576.378 375.001 577.037 371.425 577.037H359.72V569.151H369.834C371.728 569.151 373.289 568.825 374.516 568.174C375.758 567.507 376.683 566.59 377.289 565.424C377.91 564.242 378.22 562.886 378.22 561.355C378.22 559.81 377.91 558.461 377.289 557.31C376.683 556.143 375.758 555.242 374.516 554.605C373.273 553.954 371.698 553.628 369.789 553.628H363.152V592.128H353.311ZM394.749 592.128V545.583H413.112C416.643 545.583 419.65 546.257 422.135 547.605C424.62 548.939 426.514 550.795 427.817 553.174C429.135 555.537 429.794 558.264 429.794 561.355C429.794 564.446 429.128 567.174 427.794 569.537C426.461 571.901 424.529 573.742 421.999 575.06C419.484 576.378 416.438 577.037 412.862 577.037H401.158V569.151H411.272C413.165 569.151 414.726 568.825 415.953 568.174C417.196 567.507 418.12 566.59 418.726 565.424C419.347 564.242 419.658 562.886 419.658 561.355C419.658 559.81 419.347 558.461 418.726 557.31C418.12 556.143 417.196 555.242 415.953 554.605C414.711 553.954 413.135 553.628 411.226 553.628H404.59V592.128H394.749Z" fill="white"/>
<defs>
<linearGradient id="paint0_linear_26_11" x1="788.364" y1="32.2183" x2="574.604" y2="1520" gradientUnits="userSpaceOnUse">
<stop stop-color="#3B82F6"/>
<stop offset="1" stop-color="#1ABABC"/>
</linearGradient>
</defs>
</svg>
